<?xml version="1.0" standalone="no"?>
<!DOCTYPE svg PUBLIC "-//W3C//DTD SVG 20010904//EN"
 "http://www.w3.org/TR/2001/REC-SVG-20010904/DTD/svg10.dtd">
<svg version="1.0" xmlns="http://www.w3.org/2000/svg"
 width="1231.000000pt" height="1279.000000pt" viewBox="0 0 1231.000000 1279.000000"
 preserveAspectRatio="xMidYMid meet">

<g transform="translate(0.000000,1279.000000) scale(0.100000,-0.100000)"
fill="#e0cfb9" stroke="none">
<path d="M5815 12693 c-277 -18 -616 -67 -870 -124 -1527 -346 -2869 -1343
-3741 -2779 -743 -1223 -1074 -2696 -929 -4135 178 -1760 1054 -3342 2420
-4370 766 -577 1681 -959 2620 -1094 298 -43 476 -55 830 -55 464 0 748 33
1137 130 1303 327 2174 1207 2384 2409 47 272 67 685 45 940 -42 482 -170 900
-391 1278 -144 247 -273 411 -515 653 -400 401 -842 702 -1570 1069 -406 205
-684 328 -1100 489 -644 249 -945 377 -1325 567 -975 487 -1459 985 -1600
1644 -28 128 -38 432 -21 586 56 488 276 905 639 1210 451 379 1088 608 1865
670 217 17 735 6 947 -20 1031 -127 1832 -505 2206 -1042 171 -244 252 -607
172 -764 -34 -66 -114 -140 -273 -252 -215 -152 -295 -235 -368 -380 -61 -120
-81 -215 -81 -383 -1 -169 12 -230 76 -360 119 -244 407 -391 691 -351 314 44
561 251 677 570 91 248 103 589 35 929 -117 577 -483 1087 -1055 1469 -586
392 -1359 638 -2209 703 -201 15 -658 12 -861 -5 -855 -75 -1601 -345 -2139
-774 -662 -529 -992 -1291 -940 -2170 52 -876 495 -1563 1384 -2143 417 -272
897 -508 1645 -808 615 -247 1366 -610 1815 -878 922 -550 1448 -1149 1625
-1849 53 -210 65 -314 64 -583 0 -266 -13 -391 -61 -595 -218 -928 -953 -1552
-2073 -1760 -587 -110 -1394 -78 -2050 80 -256 62 -425 128 -656 257 -1223
678 -1949 2065 -2179 4163 -52 476 -69 849 -69 1485 0 553 7 770 40 1170 94
1167 328 2123 708 2905 244 500 480 840 825 1186 258 258 490 434 786 596
1043 573 2471 574 3554 2 1286 -680 2102 -2075 2391 -4089 157 -1093 157
-2446 -1 -3535 -81 -558 -214 -1113 -368 -1526 -27 -74 -43 -140 -55 -229
-102 -750 -415 -1375 -940 -1877 -138 -132 -134 -131 104 10 759 451 1415
1073 1912 1815 860 1282 1221 2857 1017 4442 -230 1798 -1193 3439 -2613 4454
-861 617 -1842 973 -2878 1046 -133 9 -560 11 -683 3z"/>
</g>
</svg>
