<?xml version="1.0" standalone="no"?>
<!DOCTYPE svg PUBLIC "-//W3C//DTD SVG 20010904//EN"
 "http://www.w3.org/TR/2001/REC-SVG-20010904/DTD/svg10.dtd">
<svg version="1.0" xmlns="http://www.w3.org/2000/svg"
 width="3108.000000pt" height="1279.000000pt" viewBox="0 0 3108.000000 1279.000000"
 preserveAspectRatio="xMidYMid meet">

<g transform="translate(0.000000,1279.000000) scale(0.100000,-0.100000)"
fill="#000000" stroke="none">
<path d="M28260 11209 c-669 -75 -1232 -428 -1616 -1014 -233 -356 -398 -801
-478 -1292 -101 -616 -77 -1310 65 -1878 200 -797 620 -1399 1204 -1727 235
-132 508 -220 805 -259 121 -16 436 -16 560 -1 395 50 770 198 1060 419 618
472 994 1280 1070 2303 21 287 11 697 -26 983 -108 855 -448 1551 -966 1983
-319 267 -727 436 -1160 483 -112 13 -408 12 -518 0z m400 -50 c303 -37 577
-178 824 -423 531 -528 826 -1460 826 -2611 0 -926 -190 -1712 -547 -2260
-277 -426 -642 -691 -1047 -761 -135 -24 -359 -15 -488 20 -670 179 -1184 877
-1387 1886 -69 341 -91 570 -98 997 -6 376 3 590 38 863 99 785 351 1408 738
1822 324 346 741 517 1141 467z"/>
<path d="M2155 11154 c-321 -33 -594 -108 -840 -230 -438 -218 -713 -572 -791
-1019 -23 -135 -23 -388 0 -510 84 -440 347 -778 834 -1068 263 -157 557 -289
1155 -518 486 -186 635 -248 862 -359 428 -210 678 -422 798 -680 67 -143 81
-209 81 -380 0 -172 -20 -262 -89 -406 -193 -400 -660 -696 -1270 -805 -152
-27 -492 -37 -646 -19 -621 71 -1118 381 -1419 883 -144 241 -250 567 -295
911 -8 64 -15 137 -15 162 0 44 -10 53 -39 35 -9 -6 -52 -287 -147 -962 -73
-525 -136 -973 -139 -996 -6 -41 -5 -43 19 -43 23 0 26 4 26 39 0 112 60 353
120 477 42 86 107 158 156 170 50 13 123 -23 352 -174 251 -165 401 -254 531
-314 400 -185 743 -261 1181 -261 487 -1 888 88 1260 279 159 82 290 175 405
289 123 122 184 206 261 360 111 224 156 474 133 736 -49 575 -405 992 -1164
1363 -219 108 -400 184 -880 371 -496 194 -648 258 -865 366 -283 141 -470
268 -616 421 -187 195 -270 381 -281 633 -28 630 427 1065 1227 1177 137 19
544 16 683 -5 264 -40 481 -104 673 -196 324 -156 509 -353 558 -593 34 -164
18 -197 -149 -323 -178 -134 -230 -217 -242 -380 -15 -220 99 -379 299 -416
219 -40 426 115 495 371 23 86 23 333 0 437 -92 406 -365 719 -817 937 -158
76 -266 115 -446 161 -228 59 -376 77 -664 80 -140 2 -273 1 -295 -1z"/>
<path d="M7340 11095 c0 -2 63 -150 141 -327 79 -182 138 -332 136 -343 -3
-17 -1956 -4368 -2034 -4534 -69 -146 -237 -353 -387 -478 -146 -122 -276
-191 -378 -201 -45 -4 -48 -6 -48 -33 l0 -29 645 0 645 0 0 30 c0 30 -1 30
-52 30 -168 0 -334 107 -389 248 -47 122 -33 299 35 437 42 85 175 299 248
398 447 611 1012 1019 1639 1186 208 56 334 73 575 78 300 7 522 -21 744 -95
l83 -27 349 -790 c192 -434 362 -829 378 -876 55 -162 59 -294 10 -390 -26
-50 -107 -120 -166 -142 -27 -11 -88 -21 -136 -24 l-88 -6 0 -28 0 -29 945 0
945 0 0 30 c0 30 -1 30 -53 30 -181 0 -444 135 -590 303 -99 113 -151 207
-310 569 -86 194 -620 1401 -1186 2683 l-1029 2330 -336 3 c-185 1 -336 0
-336 -3z m939 -2146 c337 -770 615 -1408 618 -1419 5 -17 0 -17 -79 5 -260 73
-567 100 -843 75 -340 -32 -636 -116 -951 -271 -416 -204 -793 -518 -1105
-920 -44 -55 -79 -97 -79 -93 0 4 397 887 882 1963 485 1076 892 1980 904
2009 13 28 27 52 31 52 5 0 284 -631 622 -1401z"/>
<path d="M11760 11071 c0 -30 1 -31 48 -31 78 0 182 -27 267 -69 136 -67 232
-178 283 -326 l27 -80 3 -2413 c2 -2676 7 -2486 -64 -2631 -45 -92 -142 -192
-231 -239 -76 -40 -197 -72 -275 -72 -58 0 -58 0 -58 -30 l0 -30 950 0 950 0
0 30 c0 30 0 30 -58 30 -78 0 -161 22 -258 70 -142 70 -247 205 -291 376 -17
64 -18 147 -18 1154 l0 1085 250 3 c404 5 626 -18 837 -84 311 -98 566 -307
744 -610 123 -209 199 -406 344 -889 126 -421 174 -555 257 -716 136 -266 295
-407 530 -471 115 -31 337 -32 446 0 216 62 415 205 550 393 50 71 55 84 33
92 -8 3 -28 -14 -49 -42 -50 -65 -151 -161 -217 -204 -82 -55 -161 -80 -250
-81 -102 -1 -161 26 -239 110 -113 120 -167 242 -340 771 -133 406 -209 603
-306 796 -260 517 -623 821 -1107 926 -53 11 -129 24 -168 27 -83 8 -75 16 31
33 42 7 135 27 205 45 543 141 951 441 1169 858 117 224 160 420 152 691 -4
151 -8 186 -35 287 -49 181 -100 296 -200 446 -163 243 -392 434 -692 578
-251 120 -494 185 -840 227 -64 8 -471 13 -1237 16 l-1143 4 0 -30z m2400 -55
c183 -36 364 -111 510 -209 102 -69 255 -219 330 -325 291 -408 371 -1004 203
-1527 -80 -248 -193 -436 -367 -611 -196 -196 -392 -303 -674 -365 -91 -21
-129 -22 -614 -26 l-518 -5 0 1547 0 1546 523 -4 c439 -3 536 -7 607 -21z"/>
<path d="M19831 10918 c44 -101 110 -251 145 -333 l66 -150 -1030 -2293
c-1166 -2594 -1070 -2401 -1297 -2628 -182 -184 -342 -285 -475 -301 -47 -5
-50 -8 -50 -34 l0 -29 640 0 640 0 0 29 c0 28 -1 28 -74 34 -171 13 -315 115
-366 261 -25 69 -27 212 -4 300 27 106 132 293 284 506 460 643 1075 1074
1750 1224 214 47 341 59 600 53 261 -6 390 -25 592 -87 l106 -33 357 -809
c197 -445 369 -844 383 -886 21 -64 26 -96 26 -192 1 -106 -1 -119 -26 -166
-56 -105 -157 -164 -299 -172 l-89 -5 0 -28 0 -29 945 0 945 0 0 29 0 28 -82
6 c-272 21 -540 209 -701 492 -24 44 -573 1276 -1218 2738 l-1172 2657 -338 0
-337 0 79 -182z m865 -1973 c338 -769 617 -1408 620 -1418 5 -17 3 -19 -12
-13 -49 20 -255 67 -361 83 -178 26 -522 24 -708 -5 -488 -76 -938 -279 -1350
-608 -142 -114 -397 -370 -505 -508 -135 -173 -135 -173 -92 -76 233 531 1779
3949 1785 3947 5 -1 285 -632 623 -1402z"/>
<path d="M24747 5554 c-37 -63 -67 -120 -67 -125 0 -5 30 -61 66 -124 l67
-115 136 0 136 0 68 119 68 120 -68 120 -68 120 -135 1 -135 0 -68 -116z"/>
<path d="M4850 2860 l0 -770 525 0 525 0 0 45 0 45 -485 0 -485 0 0 320 0 320
280 0 280 0 0 40 0 40 -280 0 -280 0 0 325 0 325 445 0 445 0 0 40 0 40 -485
0 -485 0 0 -770z"/>
<path d="M18030 2860 l0 -770 273 0 c149 0 306 5 347 10 420 55 712 423 669
845 -33 327 -272 594 -599 670 -50 11 -135 15 -377 15 l-313 0 0 -770z m692
671 c193 -50 354 -177 442 -351 63 -123 71 -161 71 -320 0 -132 -3 -152 -27
-218 -39 -108 -84 -178 -168 -263 -87 -88 -179 -143 -294 -176 -73 -22 -96
-23 -357 -23 l-279 0 0 685 0 685 268 0 c233 0 279 -3 344 -19z"/>
<path d="M22860 3530 c-27 -27 -26 -71 3 -98 30 -28 68 -28 95 1 44 46 14 117
-48 117 -17 0 -39 -9 -50 -20z"/>
<path d="M15323 3452 c-150 -54 -232 -182 -221 -344 4 -53 14 -87 43 -146 21
-42 38 -79 37 -81 0 -2 -27 -12 -58 -23 -106 -36 -186 -107 -233 -208 -22 -47
-26 -69 -26 -150 0 -89 2 -99 34 -158 107 -198 401 -322 667 -282 81 12 216
57 254 83 20 14 26 13 72 -16 50 -31 54 -32 194 -36 l144 -3 0 46 0 46 -138 0
c-103 0 -143 4 -157 14 -19 13 -18 16 26 63 148 158 173 383 59 525 l-31 38
101 0 100 0 0 40 0 40 -180 0 -180 0 0 -39 c0 -35 3 -39 29 -44 39 -8 97 -60
124 -111 18 -34 22 -57 22 -136 0 -83 -3 -102 -28 -151 -26 -54 -100 -149
-116 -149 -11 0 -451 474 -540 580 -39 47 -85 112 -103 145 -29 53 -32 69 -33
141 0 72 3 85 30 130 59 95 162 139 270 115 100 -22 169 -93 181 -183 l7 -48
40 0 40 0 -6 55 c-15 145 -136 251 -300 261 -54 4 -85 0 -124 -14z m-22 -704
c35 -40 158 -173 272 -296 114 -123 206 -229 204 -236 -7 -20 -142 -65 -228
-76 -135 -16 -269 6 -388 63 -234 114 -293 357 -127 523 50 50 133 92 182 93
14 1 43 -24 85 -71z"/>
<path d="M11230 3270 l0 -120 -80 0 -80 0 0 -40 0 -40 80 0 79 0 3 -382 c3
-375 3 -384 26 -433 70 -152 242 -219 404 -156 75 29 83 40 54 76 l-23 28 -47
-23 c-35 -16 -65 -22 -112 -22 -83 0 -144 34 -189 106 l-30 49 -3 379 -3 378
206 0 205 0 0 40 0 40 -205 0 -205 0 0 120 0 120 -40 0 -40 0 0 -120z"/>
<path d="M8422 3159 c-131 -23 -229 -75 -317 -171 -232 -250 -181 -641 109
-830 194 -126 469 -106 642 46 l49 43 -30 25 -29 26 -51 -39 c-267 -201 -629
-93 -734 219 -37 109 -56 100 217 104 l237 3 75 36 c41 20 96 52 121 70 74 54
249 212 249 225 0 21 -98 121 -157 160 -102 68 -265 104 -381 83z m164 -80
c32 -6 82 -22 111 -35 54 -26 153 -100 153 -114 0 -26 -199 -189 -284 -233
l-61 -32 -234 -3 -234 -3 7 43 c4 24 22 76 41 116 61 129 183 228 318 257 78
17 109 18 183 4z"/>
<path d="M10073 3159 c-162 -28 -272 -108 -395 -289 -16 -24 -17 -21 -17 96
-1 164 -6 184 -42 184 l-29 0 0 -531 0 -530 38 3 37 3 5 300 c5 282 7 303 28
356 53 133 142 233 257 289 177 87 398 48 480 -84 l30 -49 5 -406 5 -406 40 0
40 0 0 390 c0 350 -2 395 -18 442 -23 66 -66 125 -119 163 -78 57 -236 89
-345 69z"/>
<path d="M12610 3159 c-80 -13 -172 -62 -219 -115 -106 -121 -61 -275 103
-353 34 -16 131 -51 216 -77 178 -54 232 -75 278 -111 157 -120 35 -311 -219
-342 -166 -21 -328 23 -431 117 l-26 24 -31 -23 -31 -23 42 -44 c87 -88 229
-136 403 -135 92 0 123 4 188 26 165 57 256 152 257 268 0 143 -80 215 -328
294 -237 76 -289 95 -332 126 -108 79 -85 195 53 259 135 65 317 39 430 -59
l37 -33 29 22 c35 25 33 37 -17 77 -104 84 -268 125 -402 102z"/>
<path d="M20325 3160 c-272 -48 -465 -274 -465 -543 0 -135 52 -264 145 -365
111 -120 237 -175 400 -175 81 0 113 4 171 25 75 26 163 80 204 123 l24 26
-29 23 -29 24 -41 -33 c-89 -73 -189 -108 -310 -107 -130 1 -257 59 -341 156
-44 50 -100 165 -109 224 l-7 42 221 0 c196 0 228 2 283 21 82 26 191 101 322
218 l105 94 -30 38 c-123 156 -332 241 -514 209z m161 -81 c32 -6 83 -22 112
-36 58 -27 152 -98 152 -114 0 -26 -195 -185 -285 -233 l-60 -31 -233 -3 -234
-3 7 43 c12 78 70 185 134 248 113 111 258 156 407 129z"/>
<path d="M21713 3155 c-171 -38 -263 -127 -263 -254 0 -136 88 -201 399 -295
255 -78 321 -124 321 -227 0 -127 -156 -221 -365 -220 -148 0 -265 38 -343
110 -35 33 -52 32 -83 -5 -12 -15 -8 -21 34 -60 91 -82 221 -126 382 -128 151
-1 283 40 372 118 112 98 116 260 8 354 -62 55 -107 74 -345 148 -235 74 -300
119 -300 209 0 118 173 206 346 176 75 -14 167 -56 203 -95 30 -32 41 -33 71
-1 l23 25 -23 25 c-93 99 -291 153 -437 120z"/>
<path d="M24018 3160 c-162 -29 -289 -115 -373 -255 -53 -89 -76 -173 -77
-281 -2 -287 200 -517 482 -549 158 -18 358 82 451 226 18 27 35 49 37 49 3 0
2 -64 -1 -142 -6 -162 -22 -222 -83 -313 -48 -74 -103 -120 -194 -164 -73 -35
-78 -36 -190 -36 -105 0 -120 2 -175 28 -33 15 -84 46 -113 69 l-54 40 -26
-26 -26 -26 33 -34 c45 -46 152 -102 232 -121 280 -66 560 92 650 367 l24 73
0 540 0 540 -32 3 -31 3 -7 -133 c-7 -127 -9 -131 -24 -108 -118 181 -321 282
-503 250z m147 -81 c136 -25 259 -121 320 -251 187 -395 -202 -812 -583 -627
-87 42 -161 119 -209 215 -38 78 -38 78 -38 204 0 126 0 126 38 204 65 130
180 225 307 252 71 16 94 16 165 3z"/>
<path d="M25808 3160 c-162 -29 -302 -125 -384 -265 l-29 -50 -6 100 c-4 55
-7 124 -8 153 l-1 53 -32 -3 -33 -3 0 -525 0 -525 37 -3 36 -3 4 288 c4 281 4
290 30 361 34 94 77 160 144 221 109 100 251 144 387 122 114 -19 185 -69 226
-161 20 -43 21 -64 21 -437 l0 -393 40 0 40 0 0 393 c0 432 -2 446 -62 534
-71 105 -258 170 -410 143z"/>
<path d="M6388 3144 c-16 -8 -28 -18 -28 -22 1 -4 119 -239 264 -522 l263
-515 32 0 32 0 265 522 265 522 -30 16 c-17 8 -34 15 -38 15 -4 0 -116 -214
-248 -475 -132 -261 -243 -475 -246 -475 -3 0 -114 212 -246 472 -132 260
-244 473 -249 475 -5 1 -21 -5 -36 -13z"/>
<path d="M22870 2620 l0 -530 40 0 40 0 0 530 0 530 -40 0 -40 0 0 -530z"/>
</g>
</svg>
