<svg xmlns="http://www.w3.org/2000/svg" viewBox="0 0 900 779.85" width="300" height="300" fill="#EEEDEB">
  <path stroke="#EEEDEB" d="M883.06 6.58v299.08l-.16-.15-83.11 84.92h-160.5L486.66 543.05l-32.86-32.86-3.8-3.8-3.8 3.8-32.86 32.86-152.63-152.62H100.19l-83.25-85V6.58h-5.37V395.8h86.36l97.74 99.84.79.8h62l9.62 9.62c25.86 29.85 34.08 74.51 19.19 111.3-16 39.48-57.35 67-99.82 67a97 97 0 01-2.16-49.36c6.31-28 26.34-53.11 52.28-65.47l7.17-3.42-7.74-1.62c-22.95-4.85-43.81-4.81-62 .13-21.81 5.91-40 19.26-49.78 36.63-11 19.47-10.66 44 .88 61 10.88 16.07 31.19 26 55.74 27.35l1.76.07A99.9 99.9 0 00200.31 720c21.3 26.15 56.09 40.95 93.38 40.94A142.74 142.74 0 00322.3 758c35.49-7.23 70.33-27 103.62-58.8.69 17.62 7.57 37 20.93 59.16l.81 1.33c.44.71.85 1.41 1.3 2.12l1 1.4 1.09-1.4c.45-.71.86-1.41 1.3-2.12l.81-1.33c13.36-22.11 20.24-41.54 20.93-59.16 33.29 31.8 68.12 51.59 103.61 58.8a142.81 142.81 0 0028.61 2.9c37.28 0 72.08-14.79 93.38-40.94a99.9 99.9 0 0016.75-30.27l1.76-.07c24.55-1.32 44.86-11.28 55.74-27.35 11.54-17 11.9-41.57.88-61-9.82-17.37-28-30.72-49.78-36.63-18.2-4.93-39.06-5-62-.13l-7.77 1.64 7.17 3.42c25.94 12.36 46 37.45 52.28 65.47a97 97 0 01-2.18 49.38c-42.47-.06-83.85-27.57-99.82-67-14.89-36.79-6.67-81.45 19.19-111.3l9.62-9.62h62l98.52-100.7h86.38V6.58zM16.94 390.43v-77.35l75.73 77.35zm113.57 268.85c-10.43-15.39-10.69-37.65-.65-55.39 9.12-16.12 26.07-28.55 46.51-34.08a106.9 106.9 0 0128.09-3.54 146.78 146.78 0 0123.9 2.06c-24 14-42.22 38.45-48.31 65.51a102.2 102.2 0 001.77 50.41c-22.73-1.25-41.42-10.37-51.31-24.97zm541.13-90.95c19.14-3.18 36.61-2.69 52 1.48 20.44 5.53 37.39 18 46.51 34.08 10 17.74 9.78 40-.65 55.39-9.89 14.6-28.58 23.69-51.31 25a102.2 102.2 0 001.81-50.44c-6.14-27.06-24.35-51.53-48.36-65.51zm-185-17.67l46.53 46.51L500.32 630l-46.52-46.48zM450 514l32.86 32.86L450 579.72l-32.86-32.87zm-3.8 69.53L399.68 630l-32.87-32.87 46.53-46.51zm-184.46-91.47l-1-1h-62l-93.29-95.26h153l151 151.05L363 593.37l-91-91a102.83 102.83 0 00-10.26-10.31zm-57.26 224.52a94.33 94.33 0 01-15.2-26.82c43.95-.84 86.45-29.5 103-70.38 12.17-30.09 9.62-65.19-4.92-94.06l71.85 71.85-36.39 36.4 3.8 3.8L363 601l32.87 32.86-120.4 120.39c-28.56-3.94-54.21-17.07-70.99-37.67zM450 753.16c-12.73-21.66-18.89-40.49-18.76-57.37.12-17.27 6.6-36.94 18.76-57.19 12.16 20.25 18.64 39.92 18.76 57.19.13 16.88-6.03 35.71-18.76 57.37zm128.77-.4c-35.77-7.3-71.06-27.85-104.77-61.07-1-18.07-8-37.62-20.82-58.21l-.75-1.19c-.47-.74-.93-1.49-1.41-2.24l-1-1.31-1 1.31c-.48.75-.94 1.5-1.41 2.24l-.75 1.19C434 654.07 427 673.62 426 691.69c-33.7 33.22-68.95 53.77-104.77 61.07a136.94 136.94 0 01-38.92 2.24L450 587.32 617.69 755a136.94 136.94 0 01-38.92-2.24zm29-133.38c16.55 40.88 59 69.54 103 70.38a94.33 94.33 0 01-15.2 26.82c-16.78 20.6-42.43 33.73-71 37.67L504.12 633.84 537 601l36.39 36.39 3.8-3.8-36.39-36.4 71.85-71.85c-14.55 28.85-17.1 63.95-4.93 94.04zm93.56-128.31h-62l-1 1A102.83 102.83 0 00628 502.36l-91 91-46.52-46.52 151-151h153zm181.73-100.64h-75.74l75.74-77.38z" fill="#EEEDEB" />
</svg>
